#!OML:ASF F:\VICON\USERDATA\INSTALL\rory3\rory3.ASF
:FULLY-SPECIFIED
:DEGREES
73
root -0.2629217514203396 17.388179400036655 43.95459284130897 3.6003614741652954 1.8764168999522997 -0.41975207351519117
lfemur 7.10497958060086 -2.6956226043536358 -26.75263933070049
ltibia 36.44362221761371
lfoot -9.60054332071547 -2.37834234546325
ltoes -25.09129514405368
rfemur -50.48608185589531 -5.62524953231784 22.59646844526736
rtibia 95.32492206582958
rfoot 1.788561839699308 -5.200021270015998
rtoes 2.7714332600313694
lowerback 15.374051978895382 -0.7176635240734583 -2.6155884025349385
upperback -1.1003940580839866 -1.3467468065836985 1.1204449865451367
thorax -9.86719422334996 -0.4410513738891705 3.5429554806017776
lowerneck -21.828413867112065 -2.378217506353126 -2.1881751750394187
upperneck 14.443821102824423 -3.2150818167788504 3.0941116793296257
head 7.9753628403034424 -1.2692967731527816 0.9858650837224618
lclavicle -2.2104314401967573e-15 1.4342817883284582e-15
lhumerus -31.00221151578725 -17.24854778887741 96.61181312512541
lradius 115.68290150219595
lwrist 36.87702758078458
lhand -25.503485205496233 0.5326765475736475
lfingers 7.12502
lthumb 1.02525631869525 30.535478909218156
rclavicle -2.2104314401967573e-15 1.4342817883284582e-15
rhumerus -60.611709167282555 5.966750195297967 -100.6922707409547
rradius 105.78132495219144
rwrist -13.8235386407014
rhand -14.442455749949772 38.664365619355344
rfingers 7.12502
rthumb 11.703647827245707 9.314314110790907
74
root -0.2241598968910388 17.63612189352388 44.76601871187622 3.9454202564338385 0.8750625615472473 -0.8125858908579766
lfemur 11.30279731879497 -2.5092746190615 -26.357287718187642
ltibia 32.3779387529698
lfoot -1.9856358909019618 -5.430860528484018
ltoes -27.2175429919289
rfemur -51.34480548088885 -3.9432610260618337 23.538102936804407
rtibia 85.59123890886542
rfoot 1.2584530794068653 -4.464381831708287
rtoes -0.2992906855375397
lowerback 14.774640497994028 -1.0500197436923056 -2.4005795848740625
upperback -1.4116197866562148 -1.7114208909173292 1.6046995391560548
thorax -9.75551936105665 -0.6081873066481301 3.9950099081835533
lowerneck -21.597111560738902 -1.9873014229683499 -2.3559524354293035
upperneck 14.836978776263463 -2.6016210694687865 2.847725591900665
head 8.034113558028727 -1.0140220745962456 0.9887683720246299
lclavicle -2.242071673336462e-15 1.4113496200698324e-15
lhumerus -30.60473888001492 -16.90761860688779 95.75824608335066
lradius 117.8000435790992
lwrist 37.59285648640825
lhand -25.303300973384424 0.37855138033711344
lfingers 7.12502
lthumb 1.2185776524064234 30.371699161775453
rclavicle -2.242071673336462e-15 1.4113496200698324e-15
rhumerus -62.77187723672213 5.828664237725448 -99.88457441974928
rradius 106.83718977555759
rwrist -14.01115328583656
rhand -14.261417361752212 38.755782262383676
rfingers 7.12502
rthumb 11.878391061493714 9.378073895643132
75
root -0.17817787292455886 17.867576325131882 45.389249922765075 4.236913501461198 -0.2586403613247358 -1.152963842816652
lfemur 14.807028574653165 -2.563796856077541 -26.130567431842383
ltibia 28.714212933353625
lfoot 5.898694459361365 -8.197919568012004
ltoes -26.83831356404209
rfemur -51.28992392010093 -2.150615913634814 24.29377037667018
rtibia 74.99387574995494
rfoot 1.1059501636864173 -3.4982206457820415
rtoes -3.589576986567631
lowerback 14.189768727699416 -1.2793870619942704 -2.1711430843873245
upperback -1.7372115633688328 -1.9392466423823427 2.007944021350313
thorax -9.662990273067388 -0.7153038955351464 4.286781608705544
lowerneck -21.26437249009408 -1.692649243296397 -2.5653303075062404
upperneck 15.22417956689277 -2.1229902604946203 2.6656432001376063
head 8.094472645544334 -0.8194692952242542 1.008463406535201
lclavicle -2.3713556091673032e-15 1.3175912181586211e-15
lhumerus -30.78412762194072 -16.964048362247727 94.91663693600664
lradius 119.21245736444979
lwrist 37.5176010095991
lhand -24.98379250073098 0.2402346581782222
lfingers 7.12502
lthumb 1.5271484844782783 30.223999503458728
rclavicle -2.3713556091673032e-15 1.3175912181586211e-15
rhumerus -64.8043674052442 5.211990942460355 -98.84105139886103
rradius 107.64470432003174
rwrist -13.952004852065715
rhand -14.235695791658646 38.826524581081365
rfingers 7.12502
rthumb 11.903276475119277 9.435157060966617
76
root -0.13300609484196244 18.06280297776578 46.023347396899524 4.486907570757889 -1.2851893104597556 -1.340280605668393
lfemur 17.496887257507495 -3.014014566823137 -26.153964252809757
ltibia 26.139848370130355
lfoot 12.926020523208239 -10.318840144674098
ltoes -24.300998487756843
rfemur -50.50227896525882 -0.6462868067991436 24.818877162764693
rtibia 64.19441837047707
rfoot 1.4390585738887265 -2.53502483068573
rtoes -6.792413124740698
lowerback 13.677019014454388 -1.4520705891195087 -1.9790425104299973
upperback -2.0480093222229825 -2.1063093025556086 2.2836642600699464
thorax -9.590976909060364 -0.7953900727706441 4.455057034868477
lowerneck -20.903395771427714 -1.502350829631868 -2.7749789948044588
upperneck 15.537163993710557 -1.7994828557193845 2.5448387311934337
head 8.143045226723814 -0.6919797405564618 1.0354454634990011
lclavicle -2.505642116019536e-15 1.220196062639487e-15
lhumerus -31.23049350196457 -17.431433370109914 94.14444069008113
lradius 119.86600487810288
lwrist 36.800881209159925
lhand -24.638830467512367 0.0763907075596042
lfingers 7.12502
lthumb 1.8603220894876968 30.055474889648913
rclavicle -2.505642116019536e-15 1.220196062639487e-15
rhumerus -66.61596778796721 4.157967903121433 -97.61673178394086
rradius 108.33806141501354
rwrist -13.73209571262403
rhand -14.308865393199273 38.88168973338376
rfingers 7.12502
rthumb 11.832768152866374 9.4903747846114
